<svg version="1.1" xmlns="http://www.w3.org/2000/svg" style="display: block;" viewBox="0 0 2048 2048" width="1024" height="1024" preserveAspectRatio="none">
<path transform="translate(0,0)" fill="rgb(255,255,255)" d="M 0 0 L 2048 0 L 2048 2048 L 0 2048 L 0 0 z"/>
<path transform="translate(0,0)" fill="rgb(44,60,76)" d="M 449.031 1036.49 L 1231.76 1036.41 L 1473.53 1036.4 L 1552.58 1036.39 C 1582.61 1036.4 1615.3 1032.13 1638.63 1055.32 C 1654.13 1070.72 1659.52 1085.91 1659.56 1107.66 C 1659.66 1162.3 1659.57 1217.01 1659.58 1271.65 C 1659.5 1289.96 1660.99 1340.62 1658.16 1355.16 C 1655.72 1367.64 1649.66 1379.13 1640.73 1388.18 C 1614.91 1414.31 1579.69 1408.61 1545.9 1408.53 L 1440.19 1408.44 L 1045.3 1408.62 L 1045.23 1562.9 C 1069.34 1562.75 1100.23 1558.49 1111.37 1585.16 C 1116.77 1598.07 1115.14 1618.36 1115.03 1632.32 C 1149.52 1633.99 1198.2 1632.57 1233.51 1632.58 L 1468.54 1632.58 L 1544.13 1632.51 C 1557.81 1632.49 1571.98 1632.65 1585.63 1632.85 C 1618.05 1633.32 1617.94 1679.25 1588.64 1681.76 C 1568.6 1683.48 1545.67 1682.5 1525.16 1682.49 C 1389.28 1682.41 1250.59 1680.94 1114.98 1682.52 C 1114.8 1700.67 1118.76 1724.3 1105.58 1737.19 C 1096.03 1747.48 1087.09 1750 1073.44 1750.03 C 1041.98 1750.1 1010.22 1750.24 978.791 1750.1 C 962.071 1749.81 947.576 1752.1 934.769 1738.89 C 920.357 1724.03 923.949 1701.82 924 1682.5 C 887.313 1681.49 846.122 1682.39 809.204 1682.4 L 580.58 1682.4 L 500.672 1682.45 C 488.594 1682.48 449.383 1684.79 440.082 1677.91 C 421.147 1663.91 428.308 1633.3 455.456 1632.67 C 471.39 1632.3 488.788 1632.52 505.18 1632.57 L 600.031 1632.58 L 924.112 1632.57 C 924.08 1622.67 923.546 1612.36 924.128 1602.52 C 926.738 1558.4 962.437 1562.68 994.06 1562.95 L 994.212 1408.66 C 979.053 1407.93 959.436 1408.41 944.063 1408.41 L 853.177 1408.44 L 582.191 1408.44 L 487.727 1408.51 C 456.61 1408.53 425.559 1413.11 400.496 1390.71 C 371.681 1364.96 377.997 1329.65 378.011 1294.27 L 378.013 1197.89 L 377.901 1134.58 C 377.872 1122.6 377.254 1104.1 379.28 1092.91 C 381.613 1079.9 387.592 1067.83 396.52 1058.08 C 411.118 1042.35 428.248 1037.24 449.031 1036.49 z"/>
<path transform="translate(0,0)" fill="rgb(109,121,134)" d="M 1341.76 1136.41 C 1404.38 1134.58 1468.39 1137.28 1531.15 1136.47 C 1557.76 1136.13 1561.92 1167.66 1537.11 1174.6 C 1515.23 1175.51 1344.81 1176.59 1336.88 1173.05 C 1332.06 1170.9 1328.55 1166.62 1326.84 1161.68 C 1325.12 1156.7 1325.27 1151.03 1327.9 1146.38 C 1331.03 1140.88 1335.86 1138.09 1341.76 1136.41 z"/>
<path transform="translate(0,0)" fill="rgb(109,121,134)" d="M 1342.81 1273.36 C 1405.74 1270.92 1471.9 1274.58 1535.09 1273.57 C 1556.14 1273.24 1562.2 1307.32 1535.74 1311.35 C 1512.7 1311.67 1345.44 1313.35 1336.3 1309.38 C 1331.81 1307.43 1328.52 1303.09 1326.99 1298.54 C 1325.41 1293.82 1325.43 1288.32 1327.82 1283.87 C 1330.98 1278.02 1336.68 1275.13 1342.81 1273.36 z"/>
<path transform="translate(0,0)" fill="rgb(109,121,134)" d="M 1341.04 1205.17 C 1365.1 1204.49 1532.74 1203.23 1541.47 1206.17 C 1546.22 1207.78 1549.59 1211.18 1551.49 1215.8 C 1553.62 1220.99 1554.08 1227.9 1551.51 1233.02 C 1548.71 1238.61 1543.51 1241.04 1537.86 1242.89 C 1486.9 1244.15 1392.4 1243.39 1338 1241.79 C 1328.2 1241.5 1315.35 1214.59 1341.04 1205.17 z"/>
<path transform="translate(0,0)" fill="rgb(254,198,58)" d="M 830.31 1176.12 C 856.665 1173.66 880.043 1192.99 882.582 1219.34 C 885.121 1245.69 865.863 1269.12 839.523 1271.74 C 813.071 1274.37 789.515 1255.01 786.965 1228.55 C 784.416 1202.09 803.843 1178.59 830.31 1176.12 z"/>
<path transform="translate(0,0)" fill="rgb(62,139,210)" d="M 680.205 1177.03 C 697.136 1173.52 714.646 1179.39 726.044 1192.39 C 737.443 1205.39 740.97 1223.52 735.279 1239.84 C 729.587 1256.17 715.556 1268.18 698.545 1271.28 C 672.679 1275.99 647.834 1259.02 642.812 1233.21 C 637.79 1207.4 654.459 1182.36 680.205 1177.03 z"/>
<path transform="translate(0,0)" fill="rgb(95,181,92)" d="M 541.77 1176.22 C 568.24 1174.56 591.025 1194.71 592.615 1221.19 C 594.205 1247.66 573.996 1270.39 547.518 1271.92 C 521.136 1273.43 498.503 1253.31 496.918 1226.93 C 495.334 1200.56 515.396 1177.87 541.77 1176.22 z"/>
<path transform="translate(0,0)" fill="rgb(44,60,76)" d="M 441.922 643.336 C 462.756 642.165 492.463 643.02 513.799 643.026 L 646.202 643.04 L 1058.26 643.04 L 1419.67 643.031 L 1536.13 642.986 C 1557.08 642.981 1578.86 642.676 1599.73 643.421 C 1612.94 644.465 1626.04 650.064 1636.36 658.191 C 1650.1 669.008 1660.34 686.165 1661.51 703.78 C 1662.47 718.315 1662.03 733.855 1662.03 748.491 L 1662.07 831.9 L 1662.08 910.274 C 1662.08 926.276 1662.87 943.592 1660.65 959.338 C 1656.31 990.202 1628.78 1011.36 1598.77 1014.43 C 1506.68 1015.53 1413.05 1014.73 1320.85 1014.69 L 847.822 1014.71 L 574.837 1014.66 L 492.052 1014.74 C 475.864 1014.79 459.279 1015.28 442.967 1014.35 C 413.741 1012.69 384.834 989.258 380.683 959.668 C 378.43 943.616 379.395 924.17 379.451 907.785 L 379.522 827.909 L 379.443 751.827 C 379.387 737.172 378.661 713.947 380.506 700.136 C 381.861 689.523 385.973 679.45 392.431 670.92 C 404.825 654.402 421.855 646.166 441.922 643.336 z"/>
<path transform="translate(0,0)" fill="rgb(109,121,134)" d="M 1344.04 879.486 C 1406.2 877.87 1469.67 880.294 1531.9 879.757 C 1557.71 879.534 1562.45 912.032 1535.09 917.852 L 1413.85 917.826 C 1391.74 917.867 1370.5 917.932 1347.61 917.62 C 1330.47 917.387 1320.18 904.708 1329 887.896 C 1331.55 883.04 1338.6 880.445 1344.04 879.486 z"/>
<path transform="translate(0,0)" fill="rgb(109,121,134)" d="M 1339.96 743.07 C 1398.94 740.521 1460.17 744.33 1519.37 742.805 C 1529.87 742.535 1545.96 741.227 1550.88 752.118 C 1557.24 766.191 1551.45 774.76 1539.04 780.86 C 1499.43 782.283 1456.92 780.391 1416.52 781.094 C 1393.38 779.552 1361.02 783.854 1338.99 780.012 C 1323.52 777.315 1319.31 752.773 1339.96 743.07 z"/>
<path transform="translate(0,0)" fill="rgb(109,121,134)" d="M 1343.16 811.352 C 1362.46 810.759 1533.07 809.614 1541.33 812.663 C 1546.24 814.478 1549.91 818.257 1551.77 823.131 C 1553.64 828.007 1553.87 834.238 1551.55 838.997 C 1548.8 844.625 1543.95 847.287 1538.22 849.14 C 1474.09 849.985 1409.58 848.855 1345.42 848.994 C 1322.24 849.044 1317.2 817.077 1343.16 811.352 z"/>
<path transform="translate(0,0)" fill="rgb(62,139,210)" d="M 680.354 783.173 C 706.335 777.879 731.689 794.646 736.988 820.625 C 742.287 846.605 725.525 871.962 699.547 877.266 C 673.561 882.572 648.195 865.805 642.894 839.818 C 637.594 813.831 654.366 788.468 680.354 783.173 z"/>
<path transform="translate(0,0)" fill="rgb(254,198,58)" d="M 834.782 782.252 C 861.318 782.259 882.804 803.813 882.725 830.349 C 882.647 856.884 861.034 878.312 834.499 878.161 C 808.066 878.012 786.738 856.5 786.816 830.066 C 786.894 803.632 808.348 782.246 834.782 782.252 z"/>
<path transform="translate(0,0)" fill="rgb(95,181,92)" d="M 535.105 783.299 C 561.025 777.923 586.394 794.584 591.759 820.506 C 597.124 846.428 580.453 871.79 554.529 877.145 C 528.62 882.496 503.276 865.837 497.914 839.93 C 492.552 814.023 509.2 788.672 535.105 783.299 z"/>
<path transform="translate(0,0)" fill="rgb(44,60,76)" d="M 443.684 250.388 C 464.019 249.319 490.362 250.093 511.019 250.104 L 633.409 250.105 L 1019.02 250.073 L 1403.16 250.082 L 1529.03 250.035 C 1552.16 250.031 1574.8 249.816 1598.43 250.388 C 1628.94 251.126 1657.42 275.767 1661.84 306.244 C 1663.57 318.108 1662.79 334.248 1662.8 346.428 L 1662.78 419.91 L 1662.78 512.002 C 1662.79 525.581 1663.49 551.427 1661.96 563.966 C 1660.8 573.544 1657.41 582.716 1652.06 590.744 C 1639.8 609.084 1623.5 616.906 1602.66 621.038 C 1575.75 622.032 1545.05 621.377 1517.93 621.371 L 1367.7 621.371 L 906.797 621.396 L 596.961 621.362 L 496.881 621.402 C 478.722 621.405 458.4 622.09 440.467 620.801 C 409.914 618.605 381.431 590.327 380.037 559.523 C 379.354 544.436 379.596 529.636 379.605 514.73 L 379.646 431.872 L 379.557 354.402 C 379.542 339.972 378.872 319.008 381.029 305.438 C 382.721 294.463 387.334 284.145 394.385 275.565 C 407.226 259.803 423.874 252.556 443.684 250.388 z"/>
<path transform="translate(0,0)" fill="rgb(109,121,134)" d="M 1341.11 350.131 C 1358.93 349.515 1534.54 348.229 1542.8 351.752 C 1547.05 353.568 1550.54 357.537 1552.16 361.815 C 1554.01 366.697 1553.91 372.787 1551.6 377.505 C 1548.84 383.143 1543.89 385.932 1538.19 387.941 C 1528.66 388.236 1518.64 388.345 1509.1 388.184 C 1452.92 387.236 1395.63 389.849 1339.55 387.902 C 1321.04 376.842 1320.53 358.22 1341.11 350.131 z"/>
<path transform="translate(0,0)" fill="rgb(109,121,134)" d="M 1340 419.083 C 1403.35 416.169 1470.46 420.163 1534.13 418.983 C 1553.08 418.632 1557.33 436.238 1548.74 451.338 C 1545.8 453.171 1543 454.455 1539.9 455.965 C 1520.68 457.947 1344.95 457.857 1338.24 455.528 C 1333.4 453.846 1329.37 449.475 1327.26 444.89 C 1325.42 440.894 1325.02 436.978 1326.56 432.827 C 1329.41 425.112 1332.66 422.477 1340 419.083 z"/>
<path transform="translate(0,0)" fill="rgb(109,121,134)" d="M 1339.99 487.081 C 1384.48 485.356 1430.63 487.888 1475.31 486.839 C 1496.38 486.345 1518.37 486.655 1539.33 487.491 C 1542.77 487.628 1550.02 493.387 1551.29 496.81 C 1557.23 510.894 1550.98 518.445 1539 524.585 C 1529.8 525.387 1514.4 524.941 1504.87 524.939 L 1445.88 524.959 L 1377.15 524.994 C 1371.54 524.994 1343.3 525.6 1339.26 523.896 C 1320.95 516.157 1320.91 496.681 1339.99 487.081 z"/>
<path transform="translate(0,0)" fill="rgb(62,139,210)" d="M 680.477 390.307 C 697.434 386.887 714.921 392.84 726.269 405.895 C 737.618 418.95 741.078 437.096 735.33 453.411 C 729.582 469.727 715.512 481.697 698.487 484.756 C 672.549 489.417 647.693 472.329 642.756 446.441 C 637.82 420.554 654.644 395.518 680.477 390.307 z"/>
<path transform="translate(0,0)" fill="rgb(254,198,58)" d="M 833.082 389.337 C 859.464 388.323 881.725 408.777 882.942 435.151 C 884.16 461.524 863.876 483.942 837.513 485.362 C 810.862 486.796 788.146 466.243 786.916 439.582 C 785.685 412.921 806.412 390.363 833.082 389.337 z"/>
<path transform="translate(0,0)" fill="rgb(95,181,92)" d="M 535.865 390.273 C 562.034 385.302 587.244 402.601 592.018 428.808 C 596.793 455.014 579.305 480.093 553.063 484.67 C 527.099 489.199 502.343 471.936 497.619 446.007 C 492.895 420.077 509.972 395.192 535.865 390.273 z"/>
</svg>