<svg xmlns="http://www.w3.org/2000/svg" viewBox="0 0 1440 1024" preserveAspectRatio="none" width="100%" height="100%">
    <defs>
        <!-- Even lower opacity gradients for maximum subtlety -->
        <linearGradient id="grad1" x1="0%" y1="0%" x2="100%" y2="100%">
            <stop offset="0%" stop-color="#c6a0ff" stop-opacity="0.03" />
            <stop offset="100%" stop-color="#121014" stop-opacity="0.00" />
        </linearGradient>
        <linearGradient id="grad2" x1="100%" y1="100%" x2="0%" y2="0%">
            <stop offset="0%" stop-color="#ff9800" stop-opacity="0.025" />
            <stop offset="100%" stop-color="#121014" stop-opacity="0.00" />
        </linearGradient>
    </defs>
    
    <!-- Top Right Abstract Organic Curves (Smaller & Subtler) -->
    <path fill="url(#grad1)" d="M1440,0 L1440,350 C1250,320 1150,150 1100,0 Z" />
    <path fill="#c6a0ff" opacity="0.015" d="M1440,0 L1440,200 C1300,180 1250,80 1200,0 Z" />
    <path fill="#c6a0ff" opacity="0.025" d="M1440,0 L1440,100 C1350,90 1310,40 1280,0 Z" />
    
    <!-- Bottom Left Abstract Organic Curves (Smaller & Subtler) -->
    <path fill="url(#grad2)" d="M0,1024 L0,724 C150,754 250,904 340,1024 Z" />
    <path fill="#ff9800" opacity="0.015" d="M0,1024 L0,824 C100,844 150,954 240,1024 Z" />
    <path fill="#ff9800" opacity="0.02" d="M0,1024 L0,924 C70,934 110,984 160,1024 Z" />
</svg>